# xmcd
#
# Track frame offsets: 
#        150
#        14363
#        29857
#        46051
#        60181
#        75559
#        91810
#        110623
#        132336
#        163289
#
# Disc length: 2718 seconds
#
# Revision: 0
# Processed by: cddbd v1.5.2PL0 Copyright (c) Steve Scherf et al.
# Submitted via: ExactAudioCopyFreeDBPlugin 1.0
#
DISCID=7a0a9c0a
DTITLE=O.A.R. - The Rockville LP
DYEAR=2014
DGENRE=Alt. Rock
TTITLE0=Two Hands Up
TTITLE1=We'll Pick Up Where We Left Off
TTITLE2=Peace
TTITLE3=The Element
TTITLE4=Favorite Song
TTITLE5=So Good So Far
TTITLE6=The Architect
TTITLE7=Place to Hide
TTITLE8=Caroline the Wrecking Ball
TTITLE9=I Will Find You
EXTD=
EXTT0=
EXTT1=
EXTT2=
EXTT3=
EXTT4=
EXTT5=
EXTT6=
EXTT7=
EXTT8=
EXTT9=
PLAYORDER=
